<?xml version="1.0" encoding="UTF-8" standalone="no"?>
<svg
   fill="#000000"
   version="1.1"
   id="Capa_1"
   width="800px"
   height="800px"
   viewBox="0 0 974.352 974.352"
   xml:space="preserve"
   sodipodi:docname="t-shirt-outline-svgrepo-com.svg"
   inkscape:version="1.1.2 (0a00cf5339, 2022-02-04)"
   xmlns:inkscape="http://www.inkscape.org/namespaces/inkscape"
   xmlns:sodipodi="http://sodipodi.sourceforge.net/DTD/sodipodi-0.dtd"
   xmlns="http://www.w3.org/2000/svg"
   xmlns:svg="http://www.w3.org/2000/svg"><defs
   id="defs11" /><sodipodi:namedview
   id="namedview9"
   pagecolor="#ffffff"
   bordercolor="#999999"
   borderopacity="1"
   inkscape:pageshadow="0"
   inkscape:pageopacity="0"
   inkscape:pagecheckerboard="0"
   showgrid="false"
   inkscape:zoom="0.65700249"
   inkscape:cx="454.33618"
   inkscape:cy="416.28457"
   inkscape:window-width="1128"
   inkscape:window-height="640"
   inkscape:window-x="0"
   inkscape:window-y="0"
   inkscape:window-maximized="1"
   inkscape:current-layer="Capa_1" />
<g
   id="g6">
	<g
   id="g4">
		<path
   d="m 559.572,124.254 v 32.5 c 0,39.919 -32.478,72.396 -72.396,72.396 -39.918,0 -72.396,-32.477 -72.396,-72.396 v -32.5 H 268.836 L 0,402.606 178.26,580.868 250.13,505.671 V 850.098 H 724.222 V 505.669 l 71.87,75.197 178.26,-178.262 -268.836,-278.35 z M 797.143,487.891 659.222,343.583 V 785.096 H 315.13 V 343.583 L 177.209,487.891 91.131,401.813 296.424,189.254 h 57.239 c 14.64,60.124 68.946,104.896 133.513,104.896 64.567,0 118.873,-44.771 133.513,-104.896 h 57.239 l 205.293,212.559 z"
   id="path2" />
	</g>
</g>
<rect
   style="fill:#ffc107;stroke-width:1.21794"
   id="rect167"
   width="344.09198"
   height="441.513"
   x="315.13"
   y="343.58301" /><rect
   style="fill:#ffc107;stroke-width:1.21794"
   id="rect564"
   width="498.69659"
   height="115.76006"
   x="234.01112"
   y="246.7776" /><rect
   style="fill:#ffc107;stroke-width:1.33311"
   id="rect566"
   width="153.06741"
   height="127.51299"
   x="87.837448"
   y="328.17001" /><rect
   style="fill:#ffc107;stroke-width:1.33311"
   id="rect566-9"
   width="153.06741"
   height="127.51299"
   x="110.69837"
   y="360.7598" /><rect
   style="fill:#ffc107;stroke-width:1.33311"
   id="rect566-9-1"
   width="153.06741"
   height="127.51299"
   x="134.79755"
   y="353.34467" /><rect
   style="fill:#ffc107;stroke-width:1.09583"
   id="rect568"
   width="78.269997"
   height="139.28082"
   x="262.62048"
   y="271.45569" /><rect
   style="fill:#ffc107;stroke-width:1.09583"
   id="rect568-6"
   width="78.269997"
   height="139.28082"
   x="340.8905"
   y="271.45566" /><g
   id="g654">
	<g
   id="g652">
		<path
   d="m 559.572,124.254 v 32.5 c 0,39.919 -32.478,72.396 -72.396,72.396 -39.918,0 -72.396,-32.477 -72.396,-72.396 v -32.5 H 268.836 L 0,402.606 178.26,580.868 250.13,505.671 V 850.098 H 724.222 V 505.669 l 71.87,75.197 178.26,-178.262 -268.836,-278.35 z M 797.143,487.891 659.222,343.583 V 785.096 H 315.13 V 343.583 L 177.209,487.891 91.131,401.813 296.424,189.254 h 57.239 c 14.64,60.124 68.946,104.896 133.513,104.896 64.567,0 118.873,-44.771 133.513,-104.896 h 57.239 l 205.293,212.559 z"
   id="path650" />
	</g>
</g><rect
   style="fill:#ffc107;stroke-width:1.21794"
   id="rect678"
   width="111.5818"
   height="105.05735"
   x="723.026"
   y="288.89325" /><rect
   style="fill:#ffc107;stroke-width:1.21794"
   id="rect678-3"
   width="111.5818"
   height="105.05735"
   x="667.18445"
   y="236.66147" /><rect
   style="fill:#ffc107;stroke-width:1.21794"
   id="rect678-3-6"
   width="111.5818"
   height="105.05735"
   x="667.23511"
   y="341.42191" /><rect
   style="fill:#ffc107;stroke-width:1.21794"
   id="rect678-3-6-7"
   width="111.5818"
   height="105.05735"
   x="778.81689"
   y="341.42191" /><rect
   style="fill:#ffc107;stroke-width:1.21794"
   id="rect678-3-6-7-5"
   width="111.5818"
   height="105.05735"
   x="723.026"
   y="393.95056" /><rect
   style="fill:#ffc107;stroke-width:1.21794"
   id="rect678-3-6-7-5-3"
   width="111.5818"
   height="105.05735"
   x="741.33575"
   y="312.66656" /><rect
   style="fill:#ffc107;stroke-width:1.21794"
   id="rect815"
   width="130.326"
   height="151.23537"
   x="667.18445"
   y="236.66147" /><rect
   style="fill:#ffc107;stroke-width:1.21794"
   id="rect815-0"
   width="130.326"
   height="151.23537"
   x="611.00977"
   y="161.43118" /><rect
   style="fill:#ffc107;stroke-width:0.576572"
   id="rect815-0-9"
   width="62.845779"
   height="70.28511"
   x="797.14301"
   y="417.6059" /><rect
   style="fill:#ffc107;stroke-width:1.21794"
   id="rect815-7"
   width="130.326"
   height="151.23537"
   x="132.29449"
   y="271.45569" /><rect
   style="fill:#ffc107;stroke-width:1.21794"
   id="rect817"
   width="111.63245"
   height="104.76044"
   x="667.18445"
   y="236.66147" /><rect
   style="fill:#ffc107;stroke-width:1.21794"
   id="rect819"
   width="46.495449"
   height="47.407467"
   x="620.68896"
   y="189.254" /><rect
   style="fill:#ffc107;stroke-width:1.21794"
   id="rect821"
   width="65.523376"
   height="57.52359"
   x="667.18439"
   y="189.254" /><rect
   style="fill:#ffc107;stroke-width:1.21794"
   id="rect821-5"
   width="65.523376"
   height="57.52359"
   x="654.99176"
   y="225.20647" /><rect
   style="fill:#ffc107;stroke-width:1.21794"
   id="rect850"
   width="82.023163"
   height="94.744858"
   x="572.96857"
   y="187.98518" /><rect
   style="fill:#ffc107;stroke-width:1.21794"
   id="rect852"
   width="77.716003"
   height="35.952454"
   x="654.99176"
   y="246.77759" /><rect
   style="fill:#ffc107;stroke-width:1.21794"
   id="rect854"
   width="65.523376"
   height="57.523575"
   x="654.99176"
   y="225.20647" /><rect
   style="fill:#ffc107;stroke-width:1.21794"
   id="rect856"
   width="12.192688"
   height="11.455002"
   x="654.99176"
   y="225.20647" /><rect
   style="fill:#ffc107;stroke-width:1.80545"
   id="rect885"
   width="106.9067"
   height="113.87775"
   x="185.36101"
   y="246.7776" /><rect
   style="fill:#ffc107;stroke-width:2.33444"
   id="rect885-2"
   width="178.7312"
   height="113.87775"
   x="224.5995"
   y="189.254" /><g
   id="g1160">
	<g
   id="g1158">
		<path
   d="m 559.572,124.254 v 32.5 c 0,39.919 -32.478,72.396 -72.396,72.396 -39.918,0 -72.396,-32.477 -72.396,-72.396 v -32.5 H 268.836 L 0,402.606 178.26,580.868 250.13,505.671 V 850.098 H 724.222 V 505.669 l 71.87,75.197 178.26,-178.262 -268.836,-278.35 z M 797.143,487.891 659.222,343.583 V 785.096 H 315.13 V 343.583 L 177.209,487.891 91.131,401.813 296.424,189.254 h 57.239 c 14.64,60.124 68.946,104.896 133.513,104.896 64.567,0 118.873,-44.771 133.513,-104.896 h 57.239 l 205.293,212.559 z"
   id="path1156" />
	</g>
</g></svg>
