<?xml version="1.0" encoding="UTF-8" standalone="no"?>
<!-- Created with Inkscape (http://www.inkscape.org/) -->

<svg
   width="297mm"
   height="210mm"
   viewBox="0 0 297 210"
   version="1.1"
   id="svg5"
   inkscape:version="1.1 (c68e22c387, 2021-05-23)"
   sodipodi:docname="loop_orange.svg"
   xmlns:inkscape="http://www.inkscape.org/namespaces/inkscape"
   xmlns:sodipodi="http://sodipodi.sourceforge.net/DTD/sodipodi-0.dtd"
   xmlns="http://www.w3.org/2000/svg"
   xmlns:svg="http://www.w3.org/2000/svg">
  <sodipodi:namedview
     id="namedview7"
     pagecolor="#ffffff"
     bordercolor="#999999"
     borderopacity="1"
     inkscape:pageshadow="0"
     inkscape:pageopacity="0"
     inkscape:pagecheckerboard="0"
     inkscape:document-units="px"
     showgrid="false"
     showborder="true"
     inkscape:zoom="0.50000001"
     inkscape:cx="260.99999"
     inkscape:cy="272.99999"
     inkscape:window-width="1920"
     inkscape:window-height="1017"
     inkscape:window-x="-8"
     inkscape:window-y="-8"
     inkscape:window-maximized="1"
     inkscape:current-layer="layer1" />
  <defs
     id="defs2" />
  <g
     inkscape:label="Ebene 1"
     inkscape:groupmode="layer"
     id="layer1">
    <g
       id="path2618"
       style="opacity:1;fill:#ff9200;fill-opacity:1"
       transform="matrix(1.9083846,0,0,1.9083846,-153.55113,-43.127251)">
      <path
         style="color:#000000;fill:#ff9200;fill-opacity:1;stroke-width:10.6045;stroke-linejoin:round;stroke-miterlimit:5.5;-inkscape-stroke:none"
         d="m 117.90625,44.896484 c -7.99636,0 -15.99243,3.041261 -22.078125,9.126953 -12.171384,12.171386 -12.171383,31.98682 0,44.158204 12.171385,12.171379 31.984865,12.171379 44.156245,0 5.57962,-5.579613 20.20704,-20.205079 20.20704,-20.205079 a 2.6488764,2.6488764 0 0 0 0,-3.746093 c 0,0 -14.62742,-14.62742 -20.20704,-20.207032 -6.08569,-6.085691 -14.08176,-9.126952 -22.07812,-9.126953 z m 0,5.263672 c 6.62959,0 13.26046,2.535846 18.33398,7.609375 5.0624,5.062395 16.05637,16.058324 18.33204,18.333985 -2.27576,2.275751 -13.26966,13.26966 -18.33204,18.332031 -10.14705,10.147053 -26.51895,10.147053 -36.666011,0 -10.147058,-10.147058 -10.147059,-26.518956 0,-36.666016 5.073531,-5.07353 11.702441,-7.609375 18.332031,-7.609375 z"
         id="path2668" />
      <path
         style="color:#000000;fill:#ff9200;fill-opacity:1;stroke-linejoin:round;stroke-miterlimit:5.5;-inkscape-stroke:none"
         d="m 117.90625,39.59375 c -9.34076,0 -18.724922,3.576489 -25.828125,10.679687 -14.206009,14.206012 -14.206009,37.452194 0,51.658203 14.205815,14.2058 37.450445,14.20581 51.656245,0 5.57919,-5.579173 20.20508,-20.205078 20.20508,-20.205078 a 5.3027801,5.3027801 0 0 0 0.002,0 c 3.06072,-3.0607 3.06072,-8.185392 0,-11.246093 0,0 -14.62742,-14.62742 -20.20704,-20.207032 -7.10319,-7.103199 -16.48736,-10.679686 -25.82812,-10.679687 z m 0,15.869141 c 5.2775,0 10.51919,1.991838 14.58398,6.05664 4.0265,4.026496 10.42196,10.423411 14.58204,14.583985 -4.15977,4.159767 -10.55523,10.555228 -14.58204,14.582031 -8.13061,8.130614 -21.03539,8.130617 -29.16601,0 -8.130623,-8.130622 -8.130624,-21.035392 0,-29.166016 4.06529,-4.06529 9.30453,-6.05664 14.58203,-6.05664 z"
         id="path2670" />
    </g>
    <g
       id="path2620"
       style="opacity:1;fill:#ff8d00;fill-opacity:1;stroke:none;stroke-opacity:1"
       transform="matrix(1.9083846,0,0,1.9083846,-153.55113,-43.127251)">
      <path
         style="color:#000000;fill:#ff8d00;fill-opacity:1;stroke:none;stroke-width:10.6045;stroke-linecap:round;stroke-linejoin:round;stroke-miterlimit:5.5;stroke-opacity:1;-inkscape-stroke:none"
         d="m 198.72852,44.896484 c -7.99636,10e-7 -15.99244,3.041262 -22.07813,9.126953 -5.57961,5.579612 -20.20508,20.207032 -20.20508,20.207032 a 2.6488764,2.6488764 0 0 0 0,3.746093 c 0,0 14.62547,14.625466 20.20508,20.205079 12.17138,12.171379 31.98681,12.171379 44.1582,0 12.17139,-12.171384 12.17138,-31.986818 0,-44.158204 -6.08569,-6.085692 -14.08372,-9.126953 -22.08007,-9.126953 z m 0,5.263672 c 6.62959,0 13.26045,2.535845 18.33398,7.609375 10.14706,10.14706 10.14706,26.518958 0,36.666016 -10.14707,10.147053 -26.51896,10.147053 -36.66602,0 -5.06237,-5.062371 -16.05628,-16.05628 -18.33203,-18.332031 2.27566,-2.275661 13.26964,-13.27159 18.33203,-18.333985 5.07353,-5.073529 11.70245,-7.609375 18.33204,-7.609375 z"
         id="path2660" />
      <path
         style="color:#000000;fill:#ff8d00;fill-opacity:1;stroke:none;stroke-linecap:round;stroke-linejoin:round;stroke-miterlimit:5.5;stroke-opacity:1;-inkscape-stroke:none"
         d="m 198.72852,39.59375 c -9.34076,10e-7 -18.72493,3.576486 -25.82813,10.679687 -5.58004,5.580043 -20.20508,20.208985 -20.20508,20.208985 -3.05953,3.060839 -3.06033,8.183838 0,11.24414 0,0 14.62548,14.625474 20.20508,20.205078 14.20601,14.20601 37.45219,14.206 51.6582,0 14.20602,-14.20601 14.20601,-37.452192 0,-51.658203 -7.1036,-7.103603 -16.48933,-10.679687 -25.83007,-10.679687 z m 0,15.869141 c 5.27749,0 10.51917,1.991831 14.58398,6.05664 8.13062,8.130624 8.13062,21.035394 0,29.166016 -8.13064,8.130621 -21.03539,8.130618 -29.16602,0 L 169.56445,76.103516 c 4.16006,-4.160563 10.55554,-10.557483 14.58203,-14.583985 4.06529,-4.065286 9.30454,-6.05664 14.58204,-6.05664 z"
         id="path2662" />
    </g>
    <path
       id="path968"
       style="color:#000000;opacity:1;fill:#ffffff;stroke-width:1.90838;stroke-linejoin:round;stroke-miterlimit:5.5;-inkscape-stroke:none"
       d="m 267.83668,59.970249 c -11.61384,-11.613846 -26.87725,-17.418114 -42.13736,-17.41811 -15.26013,-2e-6 -30.52072,5.804276 -42.13455,17.418112 -7.69112,7.691109 -19.91739,19.919405 -27.851,27.853776 l 7.16098,7.138654 c 7.93573,-7.936449 20.15166,-20.154459 27.83981,-27.842623 9.68225,-9.682247 22.33366,-14.52137 34.98546,-14.52137 12.65158,1.85e-4 25.30549,4.838614 34.98754,14.520671 19.3645,19.364495 19.36518,50.608511 7.1e-4,69.973001 -19.36451,19.36448 -50.60921,19.36448 -69.97371,0 -9.65806,-9.65807 -30.62195,-30.62335 -34.97358,-34.975 h -0.0712 l -7.14841,-7.148406 v -0.06973 C 144.1296,90.507437 123.2372,69.615017 113.59242,59.970251 101.97877,48.356605 86.719843,42.553017 71.459942,42.552834 c -15.260131,4e-6 -30.520013,5.803575 -42.133863,17.417417 -23.2276811,23.227689 -23.2276849,61.042839 0,84.270519 23.227668,23.22768 61.038664,23.22768 84.266341,1e-5 7.67861,-7.67859 19.86451,-19.86249 27.80846,-27.80567 l -7.13726,-7.15957 c -7.94109,7.94108 -20.13478,20.13477 -27.81612,27.81612 -19.364492,19.36449 -50.608526,19.36518 -69.973009,7e-4 -19.364491,-19.36449 -19.36379,-50.608508 7e-4,-69.972997 9.682243,-9.682245 22.332943,-14.522072 34.984751,-14.522068 12.651826,0 25.305332,4.839812 34.987558,14.522064 9.66101,9.660995 30.6419,30.644701 34.98476,34.987551 -1e-4,8e-5 -6.1e-4,6.1e-4 -7.1e-4,6.9e-4 l 7.14843,7.14842 c 4.34233,4.34233 25.32363,25.32364 34.98475,34.98475 23.22767,23.22768 61.04422,23.22768 84.27191,1e-5 23.22769,-23.22768 23.22767,-61.04284 0,-84.270531 z" />
    <path
       style="opacity:0.601547;fill:#000000;stroke:none;stroke-width:0.504926px;stroke-linecap:butt;stroke-linejoin:miter;stroke-opacity:1"
       d="m 143.63224,128.6175 -21.47221,-21.50156 4.9593,-5.0084 21.45151,21.52141 z"
       id="path3435"
       sodipodi:nodetypes="ccccc" />
    <path
       style="opacity:0.601547;fill:#000000;stroke:none;stroke-width:0.504926px;stroke-linecap:butt;stroke-linejoin:miter;stroke-opacity:1"
       d="m 170.04304,102.10753 -21.47219,-21.501558 4.95929,-5.008402 21.4515,21.521412 z"
       id="path3706"
       sodipodi:nodetypes="ccccc" />
  </g>
</svg>
